PathFileType	4	(X/Y/Z)	D:\luciana\Cultery.trc
DataRate	CameraRate	NumFrames	NumMarkers	Units	OrigDataRate	OrigDataStartFrame	OrigNumFrames
250.00	250.00	8	17	mm	250.00	121	2050
Frame#	Time	pelvisR			Trunk1			Trunk2			Trunk3			C7			shoulder			upperArm1			upperArm2			upperArm3			elbow			forearm1			forearm2			forearm3			wrist1			wrist2			wrist3			Hand			
		X1	Y1	Z1	X2	Y2	Z2	X3	Y3	Z3	X4	Y4	Z4	X5	Y5	Z5	X6	Y6	Z6	X7	Y7	Z7	X8	Y8	Z8	X9	Y9	Z9	X10	Y10	Z10	X11	Y11	Z11	X12	Y12	Z12	X13	Y13	Z13	X14	Y14	Z14	X15	Y15	Z15	X16	Y16	Z16	X17	Y17	Z17	

776	3.104000	1721.380949	649.769068	688.821554	1611.742973	853.023648	940.955520	1643.023968	763.538957	923.459649	1555.458546	795.905828	929.693639	1549.091339	1130.361795	838.600397	1726.410747	1063.968778	776.296854	1854.374051	909.483671	724.634945	1819.057107	878.231645	784.447193	1794.793129	922.828019	675.339818	1844.023824	787.318468	667.889297	1872.471571	765.107095	585.859179	1837.211132	702.009022	624.580860	1821.651340	819.725394	587.164164	1793.538809	807.449460	463.175952	1811.681509	728.925705	464.637041	1728.744268	813.983202	495.687485	1761.197686	772.447824	377.836645	
777	3.108000	1721.383929	649.773419	688.815355	1611.743689	853.009701	940.935016	1643.047690	763.547361	923.451662	1555.330396	795.855761	929.592609	1549.110889	1130.358934	838.649392	1726.389408	1064.002872	776.254416	1854.230642	909.615457	724.039137	1819.614410	878.438354	784.007311	1795.920491	923.304260	674.899399	1843.825817	787.612379	666.865230	1872.077584	765.402138	585.253358	1837.099552	702.282488	623.586953	1821.412086	820.013642	586.208582	1793.430328	807.879508	462.003380	1811.557174	729.208410	463.550001	1728.844404	814.487875	494.543672	1761.143446	772.695959	376.722366	
778	3.112000	1721.387148	649.775684	688.807189	1611.738682	852.999449	940.923095	1643.076897	763.558686	923.445046	1555.189013	795.813680	929.488838	1549.105287	1130.367994	838.677883	1726.361632	1064.026356	776.205301	1854.095459	909.724414	723.433495	1819.708109	878.445923	783.408999	1796.224833	923.681557	674.408376	1843.579888	787.895679	665.838242	1871.838331	765.731990	584.369838	1836.996317	702.538192	622.621775	1821.193457	820.328116	585.220933	1793.317676	808.177471	460.867256	1811.422706	729.443789	462.517023	1728.710771	814.814448	493.440747	1761.100173	772.920609	375.593603	
779	3.116000	1721.402526	649.776042	688.801289	1611.742973	852.990091	940.919697	1643.105030	763.552129	923.433721	1555.056930	795.762062	929.388583	1549.092293	1130.358934	838.705897	1726.338148	1064.057469	776.160121	1853.962183	909.826756	722.807646	1819.676995	878.419697	782.800853	1796.528816	924.084306	673.957646	1843.308926	788.184226	664.874494	1871.618509	766.059458	583.383381	1836.909771	702.795088	621.687293	1820.997477	820.640981	584.221005	1793.207049	808.432221	459.807873	1811.288476	729.675174	461.506546	1728.533268	815.082490	492.333770	1760.965466	773.116171	374.495715	
780	3.120000	1721.413374	649.776220	688.781142	1611.787438	852.994323	940.933228	1643.132329	763.560236	923.425078	1554.914832	795.707762	929.275990	1549.090147	1130.338788	838.740587	1726.321459	1064.092875	776.123106	1853.832483	909.943938	722.164273	1819.628716	878.377914	782.156944	1796.475172	924.363554	673.465908	1843.057990	788.498163	663.916588	1871.405125	766.397238	582.378447	1836.806178	703.055918	620.750070	1820.771217	820.924163	583.261013	1793.078184	808.678031	458.764315	1811.142325	729.910910	460.500598	1728.359938	815.328896	491.254091	1760.860682	773.331702	373.444468	
781	3.124000	1721.415877	649.771750	688.772559	1611.799121	852.995276	940.920234	1643.144608	763.574123	923.416257	1554.783106	795.660138	929.168642	1549.097419	1130.351543	838.762701	1726.301789	1064.119339	776.068509	1853.683710	910.063326	721.527100	1819.574475	878.320217	781.484783	1796.319366	924.610376	672.956049	1842.821717	788.807511	662.905574	1871.220946	766.738057	581.399262	1836.697817	703.324258	619.802952	1820.528150	821.184278	582.316518	1792.948961	808.916450	457.692385	1810.999632	730.151176	459.462434	1728.172183	815.570056	490.187168	1760.806203	773.566246	372.379124	
782	3.128000	1721.420765	649.780810	688.762784	1611.814260	852.999628	940.922320	1643.158436	763.559461	923.392177	1554.642797	795.606375	929.052293	1549.088597	1130.358338	838.806987	1726.271391	1064.137697	776.012123	1853.532314	910.176039	720.903993	1819.531441	878.268242	780.788541	1796.160102	924.859524	672.434032	1842.555761	789.082527	661.879241	1871.021032	767.075360	580.418944	1836.592078	703.590512	618.889928	1820.273042	821.437836	581.382871	1792.835593	809.131742	456.635743	1810.861230	730.399966	458.378404	1727.958441	815.810740	489.087045	1760.802984	773.791790	371.253043	
783	3.132000	1721.418142	649.775505	688.754559	1611.839056	852.988541	940.912247	1643.187881	763.558686	923.396766	1554.507852	795.568228	928.946316	1549.097657	1130.354881	838.844657	1726.245642	1064.163923	775.956750	1853.382349	910.289645	720.289946	1819.466949	878.193974	780.089974	1795.993090	925.114810	671.913743	1842.289686	789.346933	660.905957	1870.795608	767.383397	579.414368	1836.462021	703.855753	617.953598	1820.045233	821.701288	580.425978	1792.719603	809.354424	455.560982	1810.702205	730.626702	457.315207	1727.745652	816.044867	488.000870	1760.639429	773.971558	370.178401	
